/* XPM */
static char * icon32x32_xpm[] = {
"32 32 8 1",
" 	c None",
".	c #F2ECD5",
"+	c #B2AE9E",
"@	c #D6D1BD",
"#	c #FFF8E0",
"$	c #D87054",
"%	c #3A73E6",
"&	c #00C000",
".........................       ",
".......++++....++++......       ",
"..+++....++....++........       ",
"..+......................       ",
"..+......................       ",
"......@@@@@@@@@@@@@@@@@@@       ",
"......@@@@@@@@@@@@@@@@@@@       ",
"......@@########################",
"..+++.@@########################",
"....+.@@##$$#$#%%%##&&&&##%#%###",
"....+.@@##$$$$#%%##&&&&###%%%###",
"....+.@@###$$##%######&&##%#%###",
"..++..@@########################",
"......@@########################",
"......@@##%##%###$$$###&#&&#&###",
"......@@##%%%%###$$$###&&&&&&###",
"..+++.@@##%%%%%##$#$###&&&&&&###",
"..+++.@@########################",
"......@@########################",
"......@@########################",
"..++..@@##&&###$$$###%%##&&&####",
"..++..@@##&&&##$#$##%%%##&&&####",
"..++..@@###&&##$$$##%%%##&&#####",
"......@@########################",
"......@@########################",
"        ########################",
"        ##%%%%####&&&&##$$$$$###",
"        ##%##%###&&&&&####$$####",
"        ##%%%%###&&##&##$$$$$###",
"        ########################",
"        ########################",
"        ########################"};
